<!-- icon666.com - MILLIONS vector ICONS FREE --><svg fill="none" viewBox="0 0 100 100" xmlns="http://www.w3.org/2000/svg"><g fill="rgb(0,0,0)"><path clip-rule="evenodd" d="m84.3957 18.0108c.5833-.5882.5793-1.538-.0089-2.1213-.5883-.5833-1.538-.5794-2.1213.0089l-11.6722 11.7703c-.0378-3.8741-4.2905-6.2416-7.6074-4.2141l-16.1918 9.8969c-.7851.4799-1.6874.7338-2.6075.7338l-9.7804.0001c-2.7614.0001-5 2.2386-5 5v24.4318c0 1.5512.7064 2.9374 1.815 3.8545l-15.1515 15.2789c-.5834.5882-.5794 1.5379.0089 2.1213.5882.5833 1.5379.5793 2.1213-.0089l16.1112-16.2467h.001l2.9742-2.9991h-.001l30.3082-30.563v.001l3-3.0252v-.001zm-16.8022 12.6829v-2.973c0-1.5619-1.7103-2.521-3.043-1.7064l-16.1918 9.8969c-1.2562.7678-2.6999 1.1741-4.1721 1.1741l-9.7804.0001c-1.1045 0-2 .8955-2 2v24.4318c0 .7192.3796 1.3497.9494 1.7021z" fill-rule="evenodd"></path><path d="m44.343 65.5171h-2.8317l-2.975 3.0001 5.8067-.0001c.8211 0 1.6295.2022 2.3539.5887l16.5427 8.8272c3.3306 1.7772 7.3539-.6362 7.3539-4.4112v-37.3313l-3 3.0252v34.3061c0 1.51-1.6093 2.4754-2.9415 1.7645l-16.5428-8.8272c-1.159-.6185-2.4525-.942-3.7662-.942z"></path></g></svg>