<!-- icon666.com - MILLIONS vector ICONS FREE --><svg fill="none" viewBox="0 0 100 100" xmlns="http://www.w3.org/2000/svg"><g fill="rgb(0,0,0)"><path clip-rule="evenodd" d="m16.6665 38.7549c0-2.7614 2.2385-5 5-5l9.7803-.0001c.9202 0 1.8225-.254 2.6076-.7339l16.1917-9.8969c3.3318-2.0365 7.6077.3613 7.6077 4.2662v45.801c0 3.7751-4.0233 6.1885-7.3539 4.4113l-16.5427-8.8272c-.7244-.3866-1.5329-.5888-2.3539-.5888l-9.9367.0001c-2.7615.0001-5.0001-2.2385-5.0001-5zm38.1873-11.3647v45.801c0 1.51-1.6094 2.4754-2.9416 1.7645l-16.5427-8.8272c-1.159-.6185-2.4525-.942-3.7663-.942l-9.9367.0001c-1.1046 0-2-.8954-2-2v-24.4317c0-1.1046.8954-2 2-2l9.7803-.0001c1.4723 0 2.916-.4063 4.1722-1.1741l16.1917-9.897c1.3327-.8146 3.0431.1445 3.0431 1.7065z" fill-rule="evenodd"></path><path d="m72.552 30.831c.5504-.6191 1.4985-.6749 2.1176-.1245 2.6291 2.3369 4.7528 5.1864 6.2407 8.3737 1.488 3.1874 2.3088 6.6451 2.4122 10.1611.1033 3.5161-.5131 7.0161-1.8113 10.2853s-3.2509 6.2385-5.7381 8.7258c-.5858.5858-1.5356.5858-2.1214 0-.5857-.5858-.5857-1.5355 0-2.1213 2.1982-2.1982 3.924-4.8225 5.0713-7.7117 1.1473-2.8893 1.6921-5.9825 1.6008-9.0899-.0914-3.1074-.8168-6.1633-2.1318-8.9802-1.3151-2.8169-3.1919-5.3353-5.5154-7.4006-.6192-.5504-.675-1.4985-.1246-2.1177z"></path><path d="m62.5951 36.494c.5504-.6192 1.4985-.675 2.1177-.1246 1.8573 1.651 3.3577 3.6641 4.4089 5.9159s1.6312 4.6947 1.7042 7.1787-.3625 4.9567-1.2797 7.2663c-.9171 2.3097-2.2967 4.4075-4.0539 6.1647-.5858.5858-1.5355.5858-2.1213 0s-.5858-1.5355 0-2.1213c1.4681-1.4682 2.6207-3.2209 3.387-5.1506s1.1301-3.9956 1.0692-6.071c-.061-2.0754-.5456-4.1164-1.4238-5.9977-.8783-1.8814-2.1319-3.5634-3.6837-4.9428-.6192-.5504-.675-1.4985-.1246-2.1176z"></path></g></svg>